<svg width="42" height="30" viewBox="0 0 42 30" fill="none" xmlns="http://www.w3.org/2000/svg">
<path d="M26.084 1.27087H37.0076C39.3619 1.27087 41.2704 3.17941 41.2704 5.53371V11.2767V18.9735V24.7165C41.2704 27.0708 39.3619 28.9793 37.0076 28.9793H26.084H15.9598H5.03627C2.68197 28.9793 0.773438 27.0708 0.773438 24.7165V18.9735V11.2767V5.53371C0.773438 3.17941 2.68197 1.27087 5.03627 1.27087H15.9598H26.084Z" fill="#F6C859"/>
<path d="M15.9598 1.27087L21.0219 6.27379M15.9598 1.27087H26.084M15.9598 1.27087H5.03627C2.68197 1.27087 0.773438 3.17941 0.773438 5.53371V11.2767M21.0219 6.27379L26.084 1.27087M21.0219 6.27379V11.2767H17.128M26.084 1.27087H37.0076C39.3619 1.27087 41.2704 3.17941 41.2704 5.53371V11.2767M15.9598 28.9793H5.03627C2.68197 28.9793 0.773438 27.0708 0.773438 24.7165V18.9735M15.9598 28.9793L21.0219 23.9764M15.9598 28.9793H26.084M21.0219 23.9764L26.084 28.9793M21.0219 23.9764V18.9735M26.084 28.9793H37.0076C39.3619 28.9793 41.2704 27.0708 41.2704 24.7165V18.9735M21.0219 18.9735H24.9159M21.0219 18.9735H17.128M0.773438 18.9735V11.2767M0.773438 18.9735H17.128M41.2704 18.9735H24.9159M41.2704 18.9735V11.2767M0.773438 11.2767H17.128M17.128 11.2767V18.9735M24.9159 18.9735V11.2767H41.2704" stroke="#7D662D" stroke-width="1.06571"/>
</svg>
