<svg width="174" height="16" viewBox="0 0 174 16" fill="none" xmlns="http://www.w3.org/2000/svg">
<path d="M105.051 15.6955C103.939 15.6955 102.882 15.6955 101.744 15.6955C101.744 12.872 101.744 10.0485 101.744 7.22494C101.69 7.22494 101.636 7.19726 101.582 7.19726C100.199 10.0208 98.817 12.8443 97.4077 15.6955C96.9469 15.6955 96.5133 15.6955 96.0254 15.6955C94.589 12.8166 93.1254 9.91006 91.6619 7.03117C91.6348 7.03117 91.5806 7.05885 91.5535 7.05885C91.5535 9.93774 91.5535 12.789 91.5535 15.6955C90.8217 15.6955 90.1712 15.6955 89.4395 15.6955C89.4395 11.1281 89.4395 6.58826 89.4395 1.96543C90.4965 1.96543 91.5535 1.96543 92.6918 1.96543C94.2095 5.01041 95.7273 8.08307 97.2993 11.2665C98.8441 8.08307 100.362 5.01041 101.853 1.93774C102.937 1.93774 103.967 1.93774 105.051 1.93774C105.051 6.50522 105.051 11.0727 105.051 15.6955Z" fill="white"/>
<path d="M55.1272 15.6956C53.7991 15.6956 52.6337 15.6956 51.4141 15.6956C49.9505 13.6749 48.4599 11.6264 46.9692 9.57798C46.8066 9.57798 46.644 9.57798 46.4272 9.57798C46.4272 11.5987 46.4272 13.6195 46.4272 15.6679C45.2888 15.6679 44.2047 15.6679 43.0664 15.6679C43.0664 11.1005 43.0664 6.53299 43.0664 1.9932C43.1477 1.96552 43.2019 1.91016 43.2832 1.91016C45.3701 1.93784 47.43 1.93784 49.5169 2.02088C50.4384 2.04856 51.3328 2.38074 52.0916 2.96206C53.8533 4.31846 53.9075 6.80981 52.1729 8.16621C51.6851 8.55376 51.0888 8.83057 50.4655 9.21812C51.9561 11.3219 53.501 13.4534 55.1272 15.6956ZM46.4543 8.22158C47.7281 8.30462 48.8935 8.16621 49.5711 6.9759C50.086 6.06241 50.0047 5.12123 49.4085 4.23542C48.6767 3.12815 47.5384 3.37728 46.4272 3.40497C46.4543 5.0105 46.4543 6.56068 46.4543 8.22158Z" fill="white"/>
<path d="M17.6981 15.6679C16.5869 15.6679 15.5841 15.6679 14.5542 15.6679C14.5542 10.8236 14.5542 6.00698 14.5542 1.10733C15.557 0.747469 16.3701 -0.221389 17.671 0.0277457C17.671 1.99314 17.671 3.95854 17.671 6.00698C17.942 5.86858 18.1589 5.75785 18.3757 5.6748C19.4327 5.20422 20.5439 4.87204 21.7093 5.17653C22.8477 5.48103 23.8776 6.5883 23.9047 7.80629C23.9589 10.4084 23.9318 13.0104 23.9318 15.6679C22.8748 15.6679 21.8449 15.6679 20.7607 15.6679C20.7607 15.3911 20.7607 15.1419 20.7607 14.8928C20.7607 12.789 20.7607 10.6852 20.7607 8.60906C20.7607 7.9447 20.7336 7.30802 19.8121 6.94816C19.1888 7.25266 18.457 7.6402 17.7252 8.00006C17.6981 10.6021 17.6981 13.1212 17.6981 15.6679Z" fill="white"/>
<path d="M118.792 10.4083C118.9 13.564 116.054 16.3045 112.504 15.9169C110.525 15.6955 108.926 14.782 108.032 12.8996C106.677 10.0761 107.978 5.92383 112.043 5.2041C113.263 4.98265 114.455 5.12106 115.621 5.59165C117.437 6.31137 118.954 8.24909 118.792 10.4083ZM115.404 11.0173C115.404 10.7681 115.431 10.519 115.404 10.2698C115.295 9.16258 115.133 8.083 114.374 7.19718C113.398 6.03455 112.124 6.20064 111.42 7.52937C110.932 8.47054 110.851 9.46708 110.932 10.4913C111.04 11.737 111.257 12.955 112.124 13.9238C113.046 14.9481 114.157 14.8373 114.835 13.647C115.323 12.8166 115.458 11.9307 115.404 11.0173Z" fill="white"/>
<path d="M72.8522 8.9967C72.8522 8.52612 72.8793 8.08321 72.8522 7.6403C72.8251 6.94826 72.4999 6.42231 71.9849 6.2839C71.3887 6.11781 70.7382 6.31158 70.3588 6.86522C70.1419 7.16971 70.0064 7.55726 69.8167 7.9448C69.0036 7.9448 68.1634 7.9448 67.2148 7.9448C67.4317 7.11435 67.8382 6.47767 68.4887 6.00709C69.8438 5.03823 71.3616 4.89982 72.9606 5.09359C73.4485 5.14895 73.9363 5.28736 74.3971 5.45345C75.5083 5.89636 76.0504 6.75449 76.0504 7.97248C76.0504 9.66106 76.0775 11.3496 76.0233 13.0105C75.9961 14.1178 76.1588 15.059 77.27 15.6126C76.0504 15.6126 74.8036 15.6126 73.5027 15.6126C73.313 15.3912 73.0961 15.1144 72.8522 14.8099C71.8765 15.8341 70.7111 16.0832 69.3831 15.7787C68.3803 15.5573 67.6214 15.0036 67.3775 13.9517C67.1335 12.9275 67.2691 11.9863 68.055 11.2112C68.8139 10.4915 69.7083 10.0486 70.684 9.68875C71.4158 9.49497 72.1204 9.27352 72.8522 8.9967ZM72.8251 13.3981C72.8251 12.3739 72.8251 11.4604 72.8251 10.4638C71.7681 10.9898 70.8466 11.5157 70.4943 12.706C70.3588 13.1766 70.4401 13.5919 70.7924 13.8964C71.1448 14.2285 71.6055 14.1732 71.9849 13.9517C72.256 13.7856 72.527 13.5642 72.8251 13.3981Z" fill="white"/>
<path d="M36.2093 9.60554C33.8513 9.60554 31.5476 9.60554 29.1625 9.60554C29.298 11.128 29.5962 12.4844 30.7616 13.4533C31.3579 13.9516 32.0625 13.9239 32.7401 13.6747C33.77 13.3426 34.4747 12.6505 34.9083 11.5709C35.4233 11.654 35.9653 11.737 36.4803 11.8478C35.8298 14.8651 32.2522 16.7751 29.4336 15.6678C27.5635 14.9204 25.8289 13.0934 26.0728 10.1869C26.2625 7.86159 27.7261 5.86851 29.9485 5.31488C31.9812 4.81661 33.7971 5.20415 35.2336 6.83737C35.9111 7.55709 36.1822 8.49827 36.2093 9.60554ZM32.5775 8.41522C32.2522 7.0865 31.656 6.47751 30.7887 6.50519C29.9756 6.53287 29.4336 7.22491 29.2438 8.41522C30.3551 8.41522 31.4392 8.41522 32.5775 8.41522Z" fill="white"/>
<path d="M65.5886 9.6055C63.2577 9.6055 60.954 9.6055 58.5689 9.6055C58.6774 11.0449 58.9755 12.346 60.0325 13.3425C60.6559 13.9515 61.4147 13.9238 62.1736 13.6747C63.2035 13.3148 63.9082 12.6228 64.3147 11.5709C64.8568 11.6539 65.3717 11.7647 65.8867 11.8477C65.4802 13.7577 63.1493 16.1107 60.439 16C58.1353 15.9169 55.9942 14.2007 55.5334 11.8754C55.0998 9.66086 55.8858 7.22487 57.8372 5.92384C59.6802 4.70584 62.3091 4.84425 63.9895 6.20065C65.0194 6.97574 65.5886 8.16605 65.5886 9.6055ZM62.011 8.41518C61.6587 7.05878 61.0895 6.47747 60.1951 6.50515C59.382 6.53283 58.8129 7.25256 58.6774 8.41518C59.7615 8.41518 60.8456 8.41518 62.011 8.41518Z" fill="white"/>
<path d="M142.019 9.57788C139.58 9.57788 137.303 9.57788 135.026 9.57788C134.755 10.8789 135.704 13.0381 136.652 13.564C137.249 13.8962 137.872 13.8962 138.468 13.6748C139.498 13.3426 140.23 12.6782 140.637 11.571C141.152 11.654 141.694 11.737 142.371 11.8755C141.965 12.5675 141.694 13.2319 141.26 13.7578C138.712 17.0796 133.888 16.609 132.235 12.872C131.34 10.8789 131.693 8.91352 132.912 7.19725C134.105 5.50867 135.812 4.92736 137.791 5.17649C139.525 5.39795 140.881 6.20071 141.585 7.8893C141.775 8.38757 141.856 8.9412 142.019 9.57788ZM138.306 8.41525C137.981 7.05885 137.384 6.47753 136.517 6.50521C135.704 6.53289 135.135 7.22494 134.999 8.41525C136.056 8.41525 137.167 8.41525 138.306 8.41525Z" fill="white"/>
<path d="M4.66168 15.6678C4.66168 11.4879 4.66168 7.36335 4.66168 3.18342C3.08972 3.18342 1.57196 3.18342 0 3.18342C0 2.74051 0 2.35297 0 1.93774C4.22804 1.93774 8.40187 1.93774 12.6299 1.93774C12.6299 2.32529 12.6299 2.68515 12.6299 3.15574C11.1393 3.15574 9.6486 3.15574 8.04953 3.15574C8.04953 7.39103 8.04953 11.5156 8.04953 15.6955C6.88411 15.6678 5.8271 15.6678 4.66168 15.6678Z" fill="white"/>
<path d="M122.993 5.34253C123.453 6.33907 123.941 7.33561 124.429 8.35983C124.917 9.38405 125.378 10.3806 125.92 11.5155C126.922 9.38405 127.898 7.36329 128.874 5.34253C129.579 5.34253 130.283 5.34253 131.069 5.34253C129.389 8.91346 127.736 12.4014 126.082 15.9169C125.622 15.9169 125.134 15.9169 124.592 15.9169C122.993 12.4567 121.339 8.91346 119.686 5.34253C120.824 5.34253 121.881 5.34253 122.993 5.34253Z" fill="white"/>
<path d="M160.259 7.22504C159.662 7.44649 159.093 7.64026 158.47 7.86172C158.389 7.69563 158.307 7.55722 158.226 7.41881C157.792 6.58836 156.979 6.25618 156.112 6.64372C155.434 6.94822 155.218 7.52954 155.733 8.08317C156.112 8.4984 156.654 8.80289 157.142 9.10739C157.982 9.63334 158.931 10.0209 159.717 10.6022C161.668 12.0416 160.936 14.9205 159.012 15.6126C157.738 16.0832 156.464 16.1662 155.163 15.8064C153.998 15.5019 153.239 14.6714 152.67 13.5088C153.266 13.2873 153.835 13.0382 154.459 12.7891C154.892 13.7856 155.407 14.6437 156.6 14.5884C157.223 14.5607 157.738 14.2839 157.901 13.5918C157.847 12.8444 157.413 12.3461 156.79 12.014C156.193 11.6818 155.543 11.4327 154.974 11.0728C154.377 10.6852 153.781 10.2977 153.347 9.77175C152.426 8.69217 152.589 7.14199 153.591 6.14545C155.109 4.65064 159.066 4.53992 160.259 7.22504Z" fill="white"/>
<path d="M82.1217 15.6678C81.0647 15.6678 80.089 15.6678 79.0591 15.6678C79.0591 10.7958 79.0591 5.97922 79.0591 1.10724C80.0619 0.747382 80.8479 -0.249158 82.1217 0.0553406C82.1217 5.25949 82.1217 10.436 82.1217 15.6678Z" fill="white"/>
<path d="M144.458 15.6401C144.458 12.5121 144.458 9.41177 144.458 6.22838C145.163 5.84083 145.894 5.45329 146.68 5.01038C146.951 5.34256 147.222 5.67474 147.521 6.0346C148.361 5.25952 149.255 4.73357 150.366 4.87197C151.071 4.95502 151.64 5.31488 152.182 5.78547C151.83 6.36678 151.478 6.92042 151.125 7.47405C149.797 6.61592 149.093 6.61592 148.198 7.39101C147.819 7.72319 147.602 8.11073 147.629 8.63668C147.656 10.6851 147.629 12.7336 147.629 14.782C147.629 15.0311 147.629 15.2803 147.629 15.5848C146.572 15.6401 145.542 15.6401 144.458 15.6401Z" fill="white"/>
<path d="M168.58 2.98957C168.498 4.42902 168.417 5.86846 168.336 7.33559C167.956 7.33559 167.604 7.33559 167.197 7.33559C167.333 5.45324 167.468 3.62625 167.604 1.7439C168.173 1.7439 168.715 1.7439 169.338 1.7439C169.745 2.96189 170.179 4.23525 170.612 5.53628C171.046 4.26293 171.452 3.01725 171.886 1.7439C172.455 1.7439 172.997 1.7439 173.594 1.7439C173.729 3.57089 173.865 5.39788 174 7.30791C173.621 7.30791 173.268 7.30791 172.835 7.30791C172.753 5.86846 172.645 4.42902 172.537 2.82348C172.049 4.37365 171.588 5.78542 171.154 7.22487C170.748 7.22487 170.368 7.22487 169.908 7.22487C169.474 5.84078 169.067 4.42902 168.634 3.01725C168.607 3.01725 168.607 3.01725 168.58 2.98957Z" fill="white"/>
<path d="M166.926 1.77173C166.926 2.07623 166.926 2.32536 166.926 2.62986C166.357 2.62986 165.788 2.62986 165.165 2.62986C165.165 4.20771 165.165 5.75789 165.165 7.33574C164.758 7.33574 164.46 7.33574 164.053 7.33574C164.053 5.81325 164.053 4.29076 164.053 2.68522C163.43 2.68522 162.888 2.68522 162.265 2.68522C162.265 2.35304 162.265 2.10391 162.265 1.77173C163.81 1.77173 165.354 1.77173 166.926 1.77173Z" fill="white"/>
</svg>
