<svg width="43" height="44" viewBox="0 0 43 44" fill="none" xmlns="http://www.w3.org/2000/svg">
<path fill-rule="evenodd" clip-rule="evenodd" d="M21.9805 30.6485C19.3919 28.4657 17.7505 25.2184 17.7505 21.5923C17.7505 17.9662 19.3919 14.7189 21.9805 12.5361C19.8772 10.7626 17.1484 9.69189 14.1667 9.69189C7.51508 9.69189 2.12291 15.0199 2.12291 21.5923C2.12291 28.1647 7.51508 33.4927 14.1667 33.4927C17.1484 33.4927 19.8772 32.422 21.9805 30.6485Z" fill="white"/>
<path opacity="0.7" fill-rule="evenodd" clip-rule="evenodd" d="M21.9781 30.6501C24.5679 28.4674 26.2101 25.2193 26.2101 21.5922C26.2101 17.9651 24.5679 14.7171 21.9781 12.5343C19.3883 14.7171 17.7461 17.9651 17.7461 21.5922C17.7461 25.2193 19.3883 28.4674 21.9781 30.6501Z" fill="white"/>
<path opacity="0.3" fill-rule="evenodd" clip-rule="evenodd" d="M21.9805 30.6485C24.5691 28.4657 26.2104 25.2184 26.2104 21.5923C26.2104 17.9662 24.5691 14.7189 21.9805 12.5361C24.0838 10.7626 26.8125 9.69189 29.7943 9.69189C36.4459 9.69189 41.838 15.0199 41.838 21.5923C41.838 28.1647 36.4459 33.4927 29.7943 33.4927C26.8125 33.4927 24.0838 32.422 21.9805 30.6485Z" fill="white"/>
</svg>
