<svg xmlns="http://www.w3.org/2000/svg" xmlns:xlink="http://www.w3.org/1999/xlink"><defs>
<clipPath id="clip0_652_62174">
<rect width="18" height="18" fill="white"/>
</clipPath>

        <filter id="filter0_d_736_36502" x="0" y="0" width="202" height="206" filterUnits="userSpaceOnUse" color-interpolation-filters="sRGB">
            <feFlood flood-opacity="0" result="BackgroundImageFix"/>
            <feColorMatrix in="SourceAlpha" type="matrix" values="0 0 0 0 0 0 0 0 0 0 0 0 0 0 0 0 0 0 127 0" result="hardAlpha"/>
            <feOffset dy="4"/>
            <feGaussianBlur stdDeviation="37"/>
            <feComposite in2="hardAlpha" operator="out"/>
            <feColorMatrix type="matrix" values="0 0 0 0 0 0 0 0 0 0 0 0 0 0 0 0 0 0 0.25 0"/>
            <feBlend mode="normal" in2="BackgroundImageFix" result="effect1_dropShadow_736_36502"/>
            <feBlend mode="normal" in="SourceGraphic" in2="effect1_dropShadow_736_36502" result="shape"/>
        </filter>
    </defs><symbol id="apple-pay-icon" viewBox="0 0 31 21">
 <path opacity="0.7" d="M4.12445 0C2.40907 0 0.996094 1.41297 0.996094 3.12835V17.7273C0.996094 19.4427 2.40907 20.8557 4.12445 20.8557H27.0657C28.7811 20.8557 30.194 19.4427 30.194 17.7273V3.12835C30.194 1.41297 28.7811 0 27.0657 0H4.12445ZM4.12445 2.08557H27.0657C27.6559 2.08557 28.1085 2.53814 28.1085 3.12835V17.7273C28.1085 18.3175 27.6559 18.7701 27.0657 18.7701H4.12445C3.53423 18.7701 3.08166 18.3175 3.08166 17.7273V3.12835C3.08166 2.53814 3.53423 2.08557 4.12445 2.08557ZM10.3791 5.21392C9.89417 5.21392 9.34045 5.49026 8.98173 5.89382C8.70435 6.22855 8.40299 6.76037 8.50727 7.29115C9.00468 7.34954 9.54797 7.03775 9.85976 6.63419C10.206 6.264 10.402 5.7447 10.3791 5.21392ZM12.4667 7.29949V13.5562H13.4386V11.4133H14.7911C16.0164 11.4133 16.8819 10.5707 16.8819 9.3569C16.8819 8.13163 16.0268 7.29949 14.813 7.29949H12.4667ZM7.08387 7.84486C5.99937 7.84486 5.16723 8.7938 5.16723 10.1546C5.16723 11.9274 6.41231 13.5562 7.19023 13.5562C7.65948 13.5562 7.8305 13.2402 8.45409 13.2402C9.02866 13.2402 9.2101 13.5562 9.69917 13.5562C10.6272 13.5562 11.3947 11.6688 11.4239 11.554C11.2706 11.4769 10.378 11.0566 10.3791 10.041C10.3791 9.05449 11.1935 8.61235 11.2321 8.59254C10.7816 7.92203 10.0725 7.84486 9.80449 7.84486C9.18195 7.84486 8.63762 8.18168 8.34042 8.18168C8.03384 8.18168 7.58232 7.84486 7.08387 7.84486ZM13.4386 8.12016H14.5585C15.4022 8.12016 15.8881 8.57064 15.8881 9.3569C15.8881 10.1432 15.4022 10.6051 14.5585 10.6051H13.4386V8.12016ZM19.1718 8.89599C18.1436 8.89599 17.3793 9.48621 17.3574 10.2954H18.2344C18.3042 9.91375 18.6619 9.65931 19.1468 9.65931C19.7474 9.65931 20.0738 9.93773 20.0738 10.4466V10.7928L18.86 10.8742C17.739 10.944 17.1248 11.406 17.1248 12.2037C17.1248 13.0129 17.7495 13.5562 18.6504 13.5562C19.2625 13.5562 19.8309 13.2434 20.0843 12.7574H20.1062V13.5093H21.0082V10.3893C21.0082 9.48725 20.2813 8.89599 19.1718 8.89599ZM21.4075 8.95543L23.0489 13.5218L22.9676 13.7981C22.8174 14.2611 22.5744 14.4467 22.1469 14.4467C22.0666 14.4467 21.9175 14.4342 21.8601 14.4342V15.185C21.9185 15.1965 22.1584 15.208 22.2282 15.208C23.1772 15.208 23.6276 14.8388 24.0218 13.7522L25.7195 8.95543H24.7361L23.5932 12.6542H23.5682L22.4263 8.95543H21.4075ZM20.0728 11.4498V11.7981H20.0717C20.0717 12.3872 19.5754 12.8023 18.9174 12.8023C18.396 12.8023 18.0738 12.5614 18.0738 12.1797C18.0738 11.7866 18.3856 11.554 18.9987 11.5196L20.0728 11.4498Z" fill="white"/>
</symbol><symbol id="calendar-icon" viewBox="0 0 16 18">
    <path d="M3.55566 8H5.33344V9.77778H3.55566V8ZM3.55566 11.5556H5.33344V13.3333H3.55566V11.5556ZM7.11122 8H8.889V9.77778H7.11122V8ZM7.11122 11.5556H8.889V13.3333H7.11122V11.5556ZM10.6668 8H12.4446V9.77778H10.6668V8ZM10.6668 11.5556H12.4446V13.3333H10.6668V11.5556Z"/>
    <path d="M1.77778 17.7778H14.2222C15.2027 17.7778 16 16.9804 16 16V3.55556C16 2.57511 15.2027 1.77778 14.2222 1.77778H12.4444V0H10.6667V1.77778H5.33333V0H3.55556V1.77778H1.77778C0.797333 1.77778 0 2.57511 0 3.55556V16C0 16.9804 0.797333 17.7778 1.77778 17.7778ZM14.2222 5.33333L14.2231 16H1.77778V5.33333H14.2222Z"/>
</symbol><symbol id="call-to-action-icon" viewBox="0 0 62 80">
  <path fill-rule="evenodd" clip-rule="evenodd" d="M0.577393 6.15377C0.577393 2.82872 3.13281 0 6.44107 0H35.2771C38.5854 0 41.1408 2.82872 41.1408 6.15377V45.5468C41.1408 46.2829 40.5464 46.8797 39.8131 46.8797C39.0799 46.8797 38.4855 46.2829 38.4855 45.5468V6.15377C38.4855 4.15592 36.9784 2.66589 35.2771 2.66589H6.44107C4.73976 2.66589 3.23264 4.15592 3.23264 6.15377V65.2077C3.23264 67.2056 4.73976 68.6956 6.44107 68.6956H14.0926C14.8258 68.6956 15.4202 69.2924 15.4202 70.0286C15.4202 70.7647 14.8258 71.3615 14.0926 71.3615H6.44107C3.13281 71.3615 0.577393 68.5328 0.577393 65.2077V6.15377Z" fill="white"/>
  <path fill-rule="evenodd" clip-rule="evenodd" d="M0.577393 7.32383C0.577393 6.59782 1.17179 6.00928 1.90502 6.00928H39.8131C40.5464 6.00928 41.1408 6.59782 41.1408 7.32383C41.1408 8.04984 40.5464 8.63839 39.8131 8.63839H1.90502C1.17179 8.63839 0.577393 8.04984 0.577393 7.32383Z" fill="white"/>
  <path fill-rule="evenodd" clip-rule="evenodd" d="M0.577393 64.0377C0.577393 63.3117 1.17602 62.7231 1.91446 62.7231H17.2685C18.0069 62.7231 18.6056 63.3117 18.6056 64.0377C18.6056 64.7637 18.0069 65.3523 17.2685 65.3523H1.91446C1.17602 65.3523 0.577393 64.7637 0.577393 64.0377Z" fill="white"/>
  <path fill-rule="evenodd" clip-rule="evenodd" d="M22.5535 41.6509C21.9761 40.6492 20.6951 40.3053 19.6922 40.8851L19.6908 40.8859C18.6871 41.4646 18.3445 42.7467 18.9231 43.7506L36.476 74.2287C36.4761 74.2288 36.4762 74.229 36.4763 74.2292C38.1876 77.1949 41.9699 78.2108 44.929 76.4986L44.9296 76.4983C46.5994 75.5332 48.4469 74.4646 50.2947 73.3959C52.1423 72.3273 53.9902 71.2585 55.6605 70.2932C58.6218 68.5793 59.6362 64.7914 57.9265 61.828L50.1757 48.3809C49.5983 47.3792 48.3174 47.0353 47.3144 47.6151C46.3142 48.1933 45.9708 49.4761 46.5498 50.4806C46.9177 51.1189 46.6992 51.935 46.0619 52.3034C45.4245 52.6719 44.6096 52.4531 44.2417 51.8148C43.6644 50.8131 42.3834 50.4692 41.3805 51.0491L41.3791 51.0498C40.3765 51.6278 40.0336 52.9077 40.6093 53.911C40.6103 53.9126 40.6112 53.9143 40.6121 53.9159C40.9791 54.5543 40.7601 55.3698 40.1228 55.7378C39.4855 56.1057 38.6711 55.8868 38.3033 55.2488C38.3026 55.2475 38.3018 55.2462 38.3011 55.2449C37.7226 54.2416 36.4436 53.8996 35.442 54.4786C34.4418 55.0568 34.0985 56.3395 34.6774 57.344C34.6774 57.344 34.6774 57.344 34.6774 57.344C35.0453 57.9823 34.8269 58.7984 34.1896 59.1669C33.5522 59.5353 32.7373 59.3166 32.3694 58.6784L32.3694 58.6783C32.3692 58.6781 32.3691 58.6778 32.369 58.6776L22.5535 41.6509L22.5535 41.6509ZM32.5392 53.6349C32.931 53.0499 33.4591 52.5433 34.1098 52.1671C35.275 51.4935 36.6072 51.3688 37.8064 51.7145C38.1075 50.5031 38.881 49.4109 40.0486 48.7374C41.2132 48.0643 42.5447 47.9395 43.7434 48.284C44.0434 47.0714 44.8159 45.9779 45.9821 45.3037C48.2571 43.9886 51.169 44.7656 52.4837 47.0466L60.234 60.4928C60.2341 60.493 60.2342 60.4932 60.2343 60.4933C62.6815 64.7356 61.2266 70.1548 56.9931 72.6044L56.9925 72.6047C55.3227 73.5698 53.4752 74.6384 51.6274 75.7071C49.7798 76.7757 47.9319 77.8445 46.2617 78.8098C42.0256 81.2605 36.6145 79.8035 34.1685 75.5638L16.615 45.0848C16.615 45.0847 16.6149 45.0845 16.6148 45.0844C15.3018 42.8059 16.0782 39.8896 18.3605 38.5733C20.6353 37.2587 23.5468 38.0358 24.8614 40.3166C24.8615 40.3166 24.8615 40.3166 24.8615 40.3166L32.5392 53.6349Z" fill="white"/>
  <path d="M38.8821 76.6832C39.5419 77.0017 39.8235 77.8051 39.5111 78.4776C39.1986 79.1502 38.4105 79.4372 37.7507 79.1187L18.6109 69.8802C17.9854 69.5783 17.6942 68.8357 17.9433 68.1775L19.1766 68.6625C17.9433 68.1775 17.9438 68.1763 17.9438 68.1763L17.9443 68.175L17.9454 68.1721L17.9471 68.1677L17.9482 68.1648L17.9559 68.1451C17.962 68.1297 17.97 68.1097 17.98 68.0855C18 68.0373 18.0279 67.9721 18.0639 67.8929C18.1358 67.7349 18.2411 67.5188 18.382 67.2686C18.6605 66.7741 19.0949 66.1157 19.7093 65.5085C20.3257 64.8992 21.1533 64.3124 22.21 64.0271C23.2826 63.7375 24.4969 63.7846 25.8242 64.2998C28.0394 65.1597 29.5938 65.8705 30.6046 66.3729C31.1101 66.6241 31.4797 66.8232 31.7282 66.9628C31.8524 67.0326 31.9464 67.0876 32.0119 67.1267C32.0447 67.1463 32.0703 67.1619 32.089 67.1735L32.112 67.1878L32.1197 67.1926L32.1226 67.1944L32.1244 67.1955C32.7438 67.5893 32.9332 68.4207 32.5469 69.0521L30.7211 69.4794C30.7127 69.4743 30.6974 69.4649 30.6749 69.4514L24.8834 66.8182C24.0297 66.4868 23.3814 66.4985 22.8869 66.632C22.3763 66.7699 21.9322 67.0649 21.5496 67.4431C21.1997 67.7954 20.8 68.7 22 69.5L34.5 75L38.8821 76.6832Z" fill="white"/>
  <path fill-rule="evenodd" clip-rule="evenodd" d="M21.2019 36.647C17.5943 36.647 14.6646 39.5574 14.6646 43.1411C14.6646 45.3571 15.7799 47.3138 17.4917 48.489C18.097 48.9046 18.2485 49.729 17.8302 50.3303C17.4118 50.9316 16.582 51.0821 15.9767 50.6665C13.576 49.0183 12 46.2632 12 43.1411C12 38.0955 16.1227 34 21.2019 34C26.2811 34 30.4038 38.0955 30.4038 43.1411C30.4038 43.872 29.8073 44.4646 29.0714 44.4646C28.3356 44.4646 27.7391 43.872 27.7391 43.1411C27.7391 39.5574 24.8094 36.647 21.2019 36.647Z" fill="white"/>
</symbol><symbol id="case-icon" viewBox="0 0 18 17">
    <path d="M16.2 3.57895H12.6V1.78947C12.6 0.796316 11.799 0 10.8 0H7.2C6.201 0 5.4 0.796316 5.4 1.78947V3.57895H1.8C0.801 3.57895 0.00899999 4.37526 0.00899999 5.36842L0 15.2105C0 16.2037 0.801 17 1.8 17H16.2C17.199 17 18 16.2037 18 15.2105V5.36842C18 4.37526 17.199 3.57895 16.2 3.57895ZM7.2 1.78947H10.8V3.57895H7.2V1.78947ZM16.2 15.2105H1.8V5.36842H16.2V15.2105Z"/>
</symbol><symbol id="checked-icon" viewBox="0 0 20 20">
    <path d="M10 0C4.46154 0 0 4.46154 0 10C0 15.5385 4.46154 20 10 20C15.5385 20 20 15.5385 20 10C20 4.46154 15.5385 0 10 0ZM15.0769 8L9.23077 14.4615C9.07692 14.6154 8.76923 14.6154 8.61538 14.6154C8.46154 14.6154 8.15385 14.4615 8 14.4615L4.92308 11.3846C4.61538 11.0769 4.61538 10.6154 4.92308 10.3077C5.23077 10 5.69231 10 6 10.3077L8.46154 12.7692L13.8462 6.92308C14.1538 6.61538 14.6154 6.61538 14.9231 6.92308C15.3846 7.23077 15.3846 7.69231 15.0769 8V8Z" fill="#276EF1"/>
</symbol><symbol id="clock-icon" viewBox="0 0 17 17">
  <path d="M8.4915 0C3.7995 0 0 3.808 0 8.5C0 13.192 3.7995 17 8.4915 17C13.192 17 17 13.192 17 8.5C17 3.808 13.192 0 8.4915 0ZM8.5 15.3C4.743 15.3 1.7 12.257 1.7 8.5C1.7 4.743 4.743 1.7 8.5 1.7C12.257 1.7 15.3 4.743 15.3 8.5C15.3 12.257 12.257 15.3 8.5 15.3Z" fill-opacity="0.8"/>
  <path d="M8.92539 4.25H7.65039V9.35L12.1129 12.0275L12.7504 10.982L8.92539 8.7125V4.25Z" fill-opacity="0.8"/>
</symbol><symbol id="close-icon" viewBox="0 0 18 17">
    <rect x="1.66792" width="21.6223" height="2.35879" transform="rotate(45 1.66792 0)"/>
    <rect x="0.0957489" y="15.332" width="21.6223" height="2.35879" transform="rotate(-45 0.0957489 15.332)"/>
</symbol><symbol id="copy-icon" viewBox="0 0 15 20">
    <path d="M14.3182 0H2.89773C2.80398 0 2.72727 0.0803571 2.72727 0.178571V1.42857C2.72727 1.52679 2.80398 1.60714 2.89773 1.60714H13.4659V16.9643C13.4659 17.0625 13.5426 17.1429 13.6364 17.1429H14.8295C14.9233 17.1429 15 17.0625 15 16.9643V0.714286C15 0.319196 14.6953 0 14.3182 0ZM11.5909 2.85714H0.681818C0.304688 2.85714 0 3.17634 0 3.57143V15.4174C0 15.6071 0.0724431 15.7879 0.200284 15.9219L3.89276 19.7902C3.93963 19.8393 3.9929 19.8795 4.05043 19.9129V19.9554H4.13991C4.21449 19.9844 4.29332 20 4.37429 20H11.5909C11.968 20 12.2727 19.6808 12.2727 19.2857V3.57143C12.2727 3.17634 11.968 2.85714 11.5909 2.85714ZM4.0483 17.683L2.21378 15.7589H4.0483V17.683ZM10.7386 18.3929H5.41193V15.2232C5.41193 14.7299 5.03054 14.3304 4.55966 14.3304H1.53409V4.46429H10.7386V18.3929Z" fill="#9C9C9C"/>
</symbol><symbol id="dollar-icon" viewBox="0 0 18 18">
    <path d="M9 1C4.58214 1 1 4.58214 1 9C1 13.4179 4.58214 17 9 17C13.4179 17 17 13.4179 17 9C17 4.58214 13.4179 1 9 1ZM9 15.6429C5.33214 15.6429 2.35714 12.6679 2.35714 9C2.35714 5.33214 5.33214 2.35714 9 2.35714C12.6679 2.35714 15.6429 5.33214 15.6429 9C15.6429 12.6679 12.6679 15.6429 9 15.6429ZM9.85179 8.58571L9.39821 8.48036V6.08214C10.0768 6.175 10.4964 6.6 10.5679 7.12143C10.5768 7.19286 10.6375 7.24464 10.7089 7.24464H11.5107C11.5946 7.24464 11.6607 7.17143 11.6536 7.0875C11.5446 5.975 10.6286 5.26071 9.40536 5.1375V4.55357C9.40536 4.475 9.34107 4.41071 9.2625 4.41071H8.76071C8.68214 4.41071 8.61786 4.475 8.61786 4.55357V5.14286C7.35357 5.26607 6.36429 5.96429 6.36429 7.26786C6.36429 8.475 7.25357 9.05714 8.1875 9.28036L8.62857 9.39286V11.9411C7.83929 11.8357 7.39643 11.4143 7.30536 10.8464C7.29464 10.7786 7.23393 10.7286 7.16429 10.7286H6.33929C6.25536 10.7286 6.18929 10.8 6.19643 10.8839C6.27679 11.8661 7.02143 12.7696 8.61071 12.8857V13.4464C8.61071 13.525 8.675 13.5893 8.75357 13.5893H9.26071C9.33929 13.5893 9.40357 13.525 9.40357 13.4446L9.4 12.8786C10.7982 12.7554 11.7982 12.0071 11.7982 10.6643C11.7964 9.425 11.0089 8.87143 9.85179 8.58571ZM8.62679 8.29643C8.52679 8.26786 8.44286 8.24107 8.35893 8.20714C7.75536 7.98929 7.475 7.6375 7.475 7.18393C7.475 6.53571 7.96607 6.16607 8.62679 6.08214V8.29643ZM9.39821 11.9464V9.55893C9.45357 9.575 9.50357 9.5875 9.55536 9.59822C10.4 9.85536 10.6839 10.2125 10.6839 10.7607C10.6839 11.4589 10.1589 11.8786 9.39821 11.9464Z" stroke="white" stroke-width="0.1"/>
</symbol><symbol id="dollar-with-dash-icon" viewBox="0 0 12 30">
    <path d="M12 14.6422C12 11.0733 9.2126 10.2667 7.15748 9.36222V6.06222C7.84252 6.30667 8.31496 6.79556 8.62205 7.65111L11.811 5.72C10.8898 3.56889 9.18898 2.44444 7.15748 2.17556V0H5.50394V2.12667C3 2.37111 0.685039 4.00889 0.685039 7.18667C0.685039 10.4622 3.14173 11.66 5.19685 12.5156C5.29134 12.5644 5.40945 12.5889 5.50394 12.6378V16.0111C4.44095 15.8156 3.75591 15.1311 3.25984 13.9578L0 15.9133C0.850394 18.26 2.83465 19.6778 5.50394 19.8733V22H7.15748V19.8489C9.96851 19.5067 12 17.6978 12 14.6422ZM4.46457 7.21111C4.46457 6.62444 4.8189 6.16 5.50394 5.98889V8.55556C4.67717 8.06667 4.46457 7.67555 4.46457 7.21111ZM7.15748 15.9622V13.3467C7.86614 13.7133 8.22047 14.08 8.22047 14.6911C8.22047 15.2044 7.96063 15.7422 7.15748 15.9622Z"/>
    <rect y="27" width="12" height="3"/>
</symbol><symbol id="down-arrow-icon" viewBox="0 0 16 10">
    <path d="M2.28571 0L8 5.83333L13.7143 0L16 1.16667L8 9.33333L0 1.16667L2.28571 0Z"/>
</symbol><symbol id="edit-icon" viewBox="0 0 14 14">
    <path d="M8.89952 2.94739L11.0526 5.1005L2.15311 14H0V11.8469L8.89952 2.94739Z"/>
    <path d="M11.991 0.000676654L10.3164 1.67464L12.326 3.68421L14.0006 2.00957L11.991 0V0.000676654Z"/>
</symbol><symbol id="email-icon" viewBox="0 0 15 11">
  <path opacity="0.8" d="M13.9286 0H1.07143C0.787268 0 0.514746 0.115892 0.313814 0.322183C0.112882 0.528472 0 0.808262 0 1.1V9.9C0 10.1917 0.112882 10.4715 0.313814 10.6778C0.514746 10.8841 0.787268 11 1.07143 11H13.9286C14.2127 11 14.4853 10.8841 14.6862 10.6778C14.8871 10.4715 15 10.1917 15 9.9V1.1C15 0.808262 14.8871 0.528472 14.6862 0.322183C14.4853 0.115892 14.2127 0 13.9286 0ZM12.75 1.1L7.5 4.829L2.25 1.1H12.75ZM1.07143 9.9V1.6005L7.19464 5.951C7.28432 6.01487 7.39086 6.0491 7.5 6.0491C7.60914 6.0491 7.71568 6.01487 7.80536 5.951L13.9286 1.6005V9.9H1.07143Z"/>
</symbol><symbol id="facebook-icon" viewBox="0 0 10 18">
<path d="M8.905 10.0485L9.39885 6.81553H6.30944V4.71845C6.30944 3.83376 6.7402 2.97087 8.12395 2.97087H9.52941V0.218447C9.52941 0.218447 8.25446 0 7.03609 0C4.49061 0 2.82838 1.54877 2.82838 4.35146V6.81553H0V10.0485H2.82838V17.8646C3.39621 17.9541 3.97713 18 4.56891 18C5.16069 18 5.74161 17.9541 6.30944 17.8646V10.0485H8.905Z" fill="#1877F2"/>
</symbol><symbol id="from-to-line-icon" viewBox="0 0 66 8">
    <circle cx="4" cy="4" r="3.5" transform="rotate(-90 4 4)" fill="none"/>
    <line x1="11" y1="4" x2="55" y2="4"/>
    <rect x="59" y="7" width="6" height="6" transform="rotate(-90 59 7)" fill="none"/>
</symbol><symbol id="google-icon" viewBox="0 0 18 18">
<g clip-path="url(#clip0_652_62174)">
<path fill-rule="evenodd" clip-rule="evenodd" d="M17.64 9.20501C17.64 8.56601 17.583 7.95301 17.476 7.36401H9V10.845H13.844C13.7438 11.3956 13.5329 11.9202 13.2242 12.387C12.9155 12.8538 12.5154 13.2532 12.048 13.561V15.82H14.956C16.658 14.253 17.64 11.945 17.64 9.20501Z" fill="#4285F4"/>
<path fill-rule="evenodd" clip-rule="evenodd" d="M9.00003 18C11.43 18 13.467 17.194 14.956 15.82L12.047 13.561C11.242 14.101 10.211 14.421 9.00003 14.421C6.65603 14.421 4.67203 12.837 3.96403 10.71H0.957031V13.042C1.70608 14.5329 2.85497 15.7862 4.27532 16.6618C5.69566 17.5373 7.33151 18.0007 9.00003 18Z" fill="#34A853"/>
<path fill-rule="evenodd" clip-rule="evenodd" d="M3.964 10.71C3.77872 10.1589 3.6835 9.58146 3.682 9.00001C3.682 8.40701 3.784 7.83001 3.964 7.29001V4.95801H0.957001C0.327056 6.21224 -0.00067966 7.59647 1.05824e-06 9.00001C1.05824e-06 10.452 0.348001 11.827 0.957001 13.042L3.964 10.71Z" fill="#FBBC05"/>
<path fill-rule="evenodd" clip-rule="evenodd" d="M9.00003 3.58C10.321 3.58 11.508 4.034 12.44 4.925L15.022 2.345C13.462 0.891001 11.426 7.07085e-07 9.00003 7.07085e-07C7.33151 -0.000660682 5.69566 0.462675 4.27532 1.33823C2.85497 2.21378 1.70608 3.46706 0.957031 4.958L3.96403 7.29C4.67203 5.163 6.65603 3.58 9.00003 3.58Z" fill="#EA4335"/>
</g>

</symbol><symbol id="heart-icon" viewBox="0 0 21 18">
    <path d="M19.4678 1.76821C18.4321 0.627951 16.9952 0 15.4219 0C13.2092 0 11.8083 1.28217 11.0227 2.3578C10.8189 2.63692 10.6456 2.91679 10.5 3.18015C10.3544 2.91679 10.1811 2.63692 9.97726 2.3578C9.19172 1.28217 7.79084 0 5.57812 0C4.00485 0 2.56795 0.627991 1.53214 1.76825C0.544154 2.85599 0 4.31277 0 5.87023C0 7.56558 0.682213 9.14242 2.14696 10.8326C3.45606 12.3431 5.33937 13.9002 7.52022 15.7032C8.33286 16.3751 9.17323 17.0699 10.0679 17.8294L10.0948 17.8522C10.2108 17.9508 10.3554 18 10.5 18C10.6446 18 10.7892 17.9507 10.9052 17.8522L10.9321 17.8294C11.8268 17.0699 12.6671 16.3752 13.4799 15.7032C15.6606 13.9003 17.5439 12.3432 18.853 10.8326C20.3178 9.14238 21 7.56558 21 5.87023C21 4.31277 20.4558 2.85598 19.4678 1.76821ZM12.6817 14.7946C11.9812 15.3737 11.2602 15.9698 10.5 16.611C9.73982 15.9699 9.0188 15.3738 8.31813 14.7945C4.05009 11.2658 1.23047 8.93466 1.23047 5.87023C1.23047 4.60358 1.66544 3.42711 2.45528 2.55757C3.25418 1.67816 4.3632 1.19382 5.57812 1.19382C7.26506 1.19382 8.35554 2.20213 8.97323 3.04799C9.52731 3.80663 9.81643 4.57139 9.91504 4.86495C9.99752 5.11068 10.2336 5.27698 10.5 5.27698C10.7664 5.27698 11.0025 5.11068 11.085 4.86495C11.1836 4.57139 11.4727 3.80663 12.0268 3.04795C12.6445 2.20213 13.7349 1.19382 15.4219 1.19382C16.6368 1.19382 17.7458 1.67816 18.5447 2.55757C19.3346 3.42711 19.7695 4.60358 19.7695 5.87023C19.7695 8.93466 16.9499 11.2658 12.6817 14.7946Z" fill="#9C9C9C"/>
    <path d="M9 2L10.5 4.5L11 4L12.5 2.5L13.5 1H15.5H17L18.5 2L19.5 3.5L20 5V7L19 9.5L10.5 17L5 12.5L2.5 10L1.5 8L1 5.5L1.5 3.5L3 1.5L5.5 0.5L7 1L9 2Z"/>
</symbol><symbol id="instagram-icon" viewBox="0 0 15 15">
    <path d="M10.2024 0.0453624C10.92 0.0783532 11.416 0.183806 11.8743 0.361721C12.3089 0.524207 12.7024 0.780464 13.0267 1.11226C13.3585 1.43657 13.6147 1.83 13.7772 2.26458C13.9551 2.72351 14.0606 3.21896 14.0936 3.93651C14.1342 4.82609 14.1389 5.1395 14.1389 7.06946C14.1389 8.99943 14.1342 9.31284 14.0936 10.2024C14.0606 10.92 13.9551 11.416 13.7772 11.8749C13.6146 12.3093 13.3584 12.7025 13.0267 13.0267C12.7024 13.3585 12.3089 13.6147 11.8743 13.7772C11.4154 13.9551 10.92 14.0606 10.2024 14.0936C9.31284 14.1342 9.00002 14.1389 7.06946 14.1389C5.13891 14.1389 4.8255 14.1342 3.93651 14.0936C3.21896 14.0606 2.72292 13.9551 2.264 13.7772C1.82962 13.6147 1.43638 13.3584 1.11226 13.0267C0.780464 12.7024 0.524207 12.3089 0.361721 11.8743C0.183806 11.4154 0.0783532 10.92 0.0453624 10.2024C0.00471298 9.31402 0 9.0006 0 7.06946C0 5.13891 0.00471298 4.82491 0.0453624 3.93651C0.0783532 3.21896 0.183806 2.72292 0.361721 2.26458C0.524207 1.83 0.780464 1.43657 1.11226 1.11226C1.4364 0.780536 1.82962 0.524284 2.264 0.361721C2.72351 0.183806 3.21896 0.0783532 3.93651 0.0453624C4.82491 0.00471298 5.13832 0 7.06946 0C9.00002 0 9.31402 0.00471298 10.2024 0.0453624ZM7.06946 1.57119C5.16071 1.57119 4.8685 1.57531 4.0078 1.61478C3.46168 1.63953 3.13413 1.70904 2.83309 1.82628C2.57682 1.92643 2.41363 2.03247 2.22276 2.22276C2.03188 2.41363 1.92584 2.57682 1.82628 2.83309C1.70963 3.13354 1.63953 3.46168 1.61478 4.0078C1.57531 4.8685 1.57119 5.16071 1.57119 7.06946C1.57119 8.97822 1.57531 9.27042 1.61478 10.1311C1.63953 10.6772 1.70904 11.0048 1.82628 11.3053C1.92643 11.5621 2.03247 11.7253 2.22276 11.9162C2.41363 12.107 2.57682 12.2131 2.83309 12.3126C3.13354 12.4293 3.46168 12.4994 4.0078 12.5241C4.86909 12.5636 5.1613 12.5677 7.06946 12.5677C8.97822 12.5677 9.26983 12.5636 10.1311 12.5241C10.6772 12.4994 11.0048 12.4299 11.3058 12.3126C11.5621 12.2125 11.7253 12.1065 11.9162 11.9162C12.107 11.7253 12.2131 11.5621 12.3126 11.3058C12.4293 11.0054 12.4994 10.6772 12.5241 10.1311C12.5636 9.26983 12.5677 8.97763 12.5677 7.06946C12.5677 5.1613 12.5636 4.86909 12.5241 4.0078C12.4994 3.46168 12.4299 3.13413 12.3126 2.83368C12.2293 2.6022 12.0936 2.39312 11.9162 2.22276C11.7458 2.04526 11.5367 1.90957 11.3053 1.82628C11.0048 1.70963 10.6767 1.63953 10.1305 1.61478C9.26983 1.57531 8.97763 1.57119 7.06887 1.57119H7.06946ZM7.06946 10.735C6.09731 10.735 5.16497 10.3488 4.47755 9.66138C3.79013 8.97396 3.40395 8.04162 3.40395 7.06946C3.40395 6.09731 3.79013 5.16497 4.47755 4.47755C5.16497 3.79013 6.09731 3.40395 7.06946 3.40395C8.04162 3.40395 8.97396 3.79013 9.66138 4.47755C10.3488 5.16497 10.735 6.09731 10.735 7.06946C10.735 8.04162 10.3488 8.97396 9.66138 9.66138C8.97396 10.3488 8.04162 10.735 7.06946 10.735ZM7.06946 9.16438C7.62507 9.16438 8.15792 8.94367 8.55079 8.55079C8.94367 8.15792 9.16438 7.62507 9.16438 7.06946C9.16438 6.51386 8.94367 5.98101 8.55079 5.58813C8.15792 5.19526 7.62507 4.97455 7.06946 4.97455C6.51386 4.97455 5.98101 5.19526 5.58813 5.58813C5.19526 5.98101 4.97455 6.51386 4.97455 7.06946C4.97455 7.62507 5.19526 8.15792 5.58813 8.55079C5.98101 8.94367 6.51386 9.16438 7.06946 9.16438ZM10.735 4.18925C10.5266 4.18925 10.3268 4.10648 10.1795 3.95915C10.0322 3.81182 9.94939 3.612 9.94939 3.40365C9.94939 3.1953 10.0322 2.99548 10.1795 2.84815C10.3268 2.70083 10.5266 2.61806 10.735 2.61806C10.9433 2.61806 11.1432 2.70083 11.2905 2.84815C11.4378 2.99548 11.5206 3.1953 11.5206 3.40365C11.5206 3.612 11.4378 3.81182 11.2905 3.95915C11.1432 4.10648 10.9433 4.18925 10.735 4.18925Z"/>
</symbol><symbol id="key-icon" viewBox="0 0 18 18">
    <path fill-rule="evenodd" clip-rule="evenodd" d="M7.07511 5.82759C7.07511 3.15343 9.24672 1 12.0002 1C14.7395 1 17.0003 3.13249 17.0003 5.82045C17.0003 8.50699 14.741 10.6491 12.0002 10.6491C11.3996 10.6491 10.8934 10.5723 10.3724 10.3861C10.3543 10.3987 10.3343 10.4126 10.3119 10.4279C10.2031 10.5021 10.0147 10.6248 9.79589 10.6719C9.67909 10.6972 9.57193 10.6865 9.5226 10.6807C9.45935 10.6732 9.39568 10.6607 9.33988 10.6484C9.23158 10.6243 9.10826 10.5903 9.00263 10.5611L8.99455 10.5589C8.93586 10.5427 8.88217 10.5279 8.83348 10.515C8.84884 10.5491 8.86696 10.5871 8.88799 10.6301C8.89556 10.6456 8.90385 10.6624 8.91262 10.6801C8.95334 10.7625 9.00447 10.8659 9.04198 10.958C9.06596 11.017 9.09297 11.0913 9.11084 11.1723C9.12758 11.2483 9.14593 11.3715 9.11617 11.5111C9.08115 11.6754 8.99426 11.822 8.92669 11.9209C8.84986 12.0333 8.75369 12.1472 8.6476 12.2513C8.4596 12.4357 8.14088 12.687 7.76268 12.731C7.52475 12.7587 7.31453 12.6866 7.18974 12.6371C7.14095 12.6178 7.09352 12.5969 7.05085 12.5774C7.05344 12.5836 7.05601 12.5898 7.05854 12.5959C7.09979 12.6963 7.16833 12.8756 7.16431 13.081C7.15634 13.5672 6.87142 13.862 6.67094 14.0466C6.56011 14.1503 6.41807 14.279 6.24276 14.3738C6.04815 14.4789 5.8373 14.5306 5.59677 14.5277L5.59642 14.5277C5.40856 14.5253 5.20626 14.4817 5.07793 14.4541C5.06191 14.4506 5.04704 14.4474 5.0335 14.4446C4.9585 14.4288 4.90815 14.4194 4.86982 14.415C4.86708 14.4146 4.86457 14.4144 4.86227 14.4141C4.86251 14.4163 4.86278 14.4185 4.86306 14.4207C4.87037 14.4799 4.87733 14.5182 4.8861 14.5664C4.89445 14.6123 4.90444 14.6673 4.91793 14.7578C4.95172 14.9844 5.02613 15.5247 4.62897 15.9141C4.5525 15.9894 4.49304 16.052 4.41445 16.1348C4.38625 16.1645 4.35559 16.1968 4.3208 16.2333C4.19172 16.3684 4.02172 16.5429 3.74162 16.8157L3.74017 16.8171L3.73897 16.8183C3.51487 17.0338 3.24178 17.0076 3.12903 16.9857C3.00159 16.961 2.8878 16.9081 2.80596 16.8645C2.63531 16.7737 2.45235 16.6404 2.29222 16.5134C1.96647 16.255 1.63652 15.9426 1.50136 15.8013C1.29469 15.5853 1 15.1576 1 14.6456L1 14.6452C1.00012 14.464 1.03838 14.2847 1.11231 14.1192C1.18444 13.9577 1.28894 13.8128 1.4193 13.6934C1.49833 13.6154 1.7976 13.2789 2.25747 12.75C2.71445 12.2244 3.30505 11.5381 3.9327 10.8058C5.08772 9.45822 6.36566 7.95784 7.16211 7.02273C7.07485 6.61543 7.07499 6.21079 7.0751 5.86509C7.07511 5.85251 7.07511 5.84001 7.07511 5.82759ZM4.85848 14.3601C4.85849 14.3601 4.85848 14.3605 4.85843 14.3614C4.85845 14.3605 4.85847 14.3601 4.85848 14.3601ZM8.7739 10.3524C8.77392 10.3524 8.77406 10.3531 8.77421 10.3546C8.77395 10.3531 8.77387 10.3523 8.7739 10.3524ZM8.63715 10.4705C8.63756 10.4705 8.638 10.4706 8.63846 10.4706C8.63018 10.4702 8.62906 10.4695 8.63715 10.4705ZM12.0002 2.14288C9.86074 2.14288 8.21799 3.80166 8.21799 5.82759C8.21799 6.31062 8.22345 6.66114 8.33277 6.97578C8.39929 7.16722 8.35942 7.37958 8.228 7.53387C8.16991 7.60207 8.10822 7.6745 8.04326 7.75077C7.24775 8.68478 5.96212 10.1942 4.80046 11.5496C4.17229 12.2825 3.5796 12.9712 3.11994 13.4999C2.67305 14.0139 2.3252 14.4079 2.20695 14.5217C2.20217 14.5263 2.1973 14.5308 2.19235 14.5352C2.17679 14.5492 2.16435 14.5663 2.15583 14.5853C2.14733 14.6044 2.14292 14.625 2.14288 14.6458C2.14292 14.6838 2.15572 14.7443 2.19471 14.822C2.23315 14.8986 2.28461 14.9668 2.32725 15.0113C2.42781 15.1165 2.71929 15.3934 3.00248 15.618C3.07045 15.672 3.13266 15.7186 3.18759 15.7572C3.3201 15.6249 3.41593 15.5259 3.49448 15.4437C3.5227 15.4142 3.54965 15.3858 3.576 15.358C3.65107 15.2789 3.72124 15.205 3.8018 15.1248C3.80364 15.1008 3.80488 15.0426 3.78755 14.9263C3.78449 14.9058 3.77806 14.868 3.77044 14.8233C3.75585 14.7376 3.73689 14.6263 3.72881 14.5609C3.71509 14.4499 3.6902 14.218 3.78554 13.9955C3.86683 13.8058 3.97921 13.6244 4.16082 13.4893C4.33726 13.3581 4.52345 13.3144 4.63949 13.29C4.77889 13.2606 4.91071 13.2692 5.00154 13.2797C5.09691 13.2908 5.19255 13.3102 5.26844 13.3261C5.27867 13.3282 5.28862 13.3303 5.29829 13.3324C5.45842 13.3661 5.54391 13.384 5.61068 13.3849C5.66648 13.3856 5.68419 13.3765 5.69939 13.3683C5.73302 13.3501 5.7815 13.3137 5.89186 13.2104C5.89302 13.2093 5.89418 13.2083 5.89534 13.2072C5.97505 13.1339 6.00457 13.0972 6.01714 13.0768C6.01758 13.0761 6.01798 13.0755 6.01833 13.0749C6.01498 13.065 6.00965 13.0503 6.00137 13.0302C5.98941 13.001 5.97635 12.9718 5.95898 12.933C5.95545 12.9251 5.95175 12.9168 5.94784 12.908C5.92673 12.8607 5.90042 12.801 5.87631 12.7377C5.83041 12.6171 5.77172 12.4323 5.78389 12.2198C5.79746 11.9828 5.89578 11.7594 6.08241 11.5766C6.29287 11.3705 6.54748 11.2947 6.78998 11.3047C7.00136 11.3134 7.18833 11.3868 7.30765 11.4382C7.36082 11.4612 7.41463 11.4863 7.45913 11.507C7.46739 11.5109 7.47534 11.5146 7.48289 11.5181C7.53575 11.5427 7.57565 11.5607 7.61095 11.5747C7.62518 11.5803 7.63669 11.5845 7.64573 11.5875C7.65513 11.583 7.66753 11.5765 7.68295 11.5671C7.7321 11.5372 7.78969 11.4919 7.84731 11.4354C7.88807 11.3954 7.92369 11.3549 7.95217 11.3183C7.93693 11.2858 7.91891 11.2493 7.89725 11.2053C7.88627 11.1831 7.87435 11.1589 7.86139 11.1324C7.81051 11.0284 7.7444 10.8898 7.69798 10.7471C7.65507 10.6152 7.60143 10.4011 7.65331 10.1702L7.65372 10.1684C7.65393 10.1675 7.65414 10.1666 7.65436 10.1657C7.6848 10.0352 7.75074 9.92957 7.78906 9.8731C7.83628 9.80351 7.89273 9.73542 7.95247 9.67397C8.04826 9.57545 8.2428 9.39944 8.49661 9.34427C8.61367 9.31882 8.72114 9.32959 8.77056 9.3354C8.83381 9.34283 8.89748 9.35531 8.95328 9.3677C9.06158 9.39175 9.1849 9.42579 9.29053 9.45495L9.29861 9.45718C9.41444 9.48915 9.51079 9.51558 9.58767 9.53266C9.58866 9.53288 9.58965 9.5331 9.59062 9.53331C9.61156 9.52102 9.63695 9.50482 9.66792 9.4837C9.70392 9.45915 9.73882 9.434 9.77963 9.40459C9.79073 9.39659 9.80227 9.38827 9.81439 9.37957C9.86612 9.34241 9.92965 9.29727 9.99456 9.25686C10.1537 9.15778 10.3513 9.14304 10.5233 9.21741C10.9979 9.42256 11.4232 9.50623 12.0002 9.50623C14.1524 9.50623 15.8574 7.83399 15.8574 5.82045C15.8574 3.80831 14.1539 2.14288 12.0002 2.14288ZM9.65601 9.54559C9.6556 9.54554 9.65516 9.54548 9.6547 9.54543C9.66298 9.54589 9.6641 9.54654 9.65601 9.54559ZM8.01182 11.2284C8.01186 11.2284 8.01161 11.229 8.011 11.2302C8.01149 11.2291 8.01178 11.2285 8.01182 11.2284ZM13.0002 4.42864C12.8872 4.42864 12.7767 4.46215 12.6827 4.52494C12.5888 4.58773 12.5155 4.67698 12.4723 4.78139C12.429 4.88581 12.4177 5.00071 12.4398 5.11156C12.4618 5.2224 12.5162 5.32422 12.5962 5.40414C12.6761 5.48406 12.7779 5.53849 12.8887 5.56053C12.9996 5.58258 13.1145 5.57127 13.2189 5.52802C13.3233 5.48477 13.4126 5.41152 13.4754 5.31755C13.5381 5.22358 13.5717 5.11309 13.5717 5.00007C13.5717 4.84852 13.5115 4.70317 13.4043 4.59601C13.2971 4.48884 13.1518 4.42864 13.0002 4.42864ZM12.0478 3.57467C12.3297 3.3863 12.6612 3.28576 13.0002 3.28576C13.4549 3.28576 13.8909 3.46637 14.2124 3.78787C14.5339 4.10937 14.7145 4.54541 14.7145 5.00007C14.7145 5.33913 14.614 5.67058 14.4256 5.9525C14.2373 6.23442 13.9695 6.45414 13.6563 6.5839C13.343 6.71365 12.9983 6.7476 12.6658 6.68145C12.3332 6.6153 12.0278 6.45203 11.788 6.21228C11.5483 5.97253 11.385 5.66707 11.3188 5.33452C11.2527 5.00198 11.2866 4.65728 11.4164 4.34403C11.5462 4.03078 11.7659 3.76304 12.0478 3.57467Z" stroke="white" stroke-width="0.1" stroke-linejoin="round"/>
</symbol><symbol id="linkedin-icon" viewBox="0 0 15 14">
<path d="M3.31703 14V4.55422H0.315977V14H3.31703ZM1.81689 3.26379C2.86341 3.26379 3.51482 2.53846 3.51482 1.63205C3.49532 0.705193 2.86345 0 1.83675 0C0.81021 0 0.138916 0.705207 0.138916 1.63205C0.138916 2.53851 0.790163 3.26379 1.7973 3.26379H1.8168H1.81689ZM4.9781 14H7.97915V8.72502C7.97915 8.44271 7.99865 8.16069 8.0779 7.95888C8.29485 7.39483 8.78864 6.81064 9.61766 6.81064C10.7036 6.81064 11.1381 7.67685 11.1381 8.94665V13.9999H14.1389V8.58381C14.1389 5.68244 12.6584 4.33246 10.6838 4.33246C9.0649 4.33246 8.35408 5.27917 7.95918 5.92397H7.97921V4.55403H4.97816C5.01755 5.44037 4.97816 13.9998 4.97816 13.9998L4.9781 14Z"/>
</symbol><symbol id="logout-icon" viewBox="0 0 16 13">
    <path fill-rule="evenodd" clip-rule="evenodd" d="M15.4142 12.0833C15.0391 12.4614 14.5304 12.6738 14 12.6738L7.14286 12.6738C6.61242 12.6738 6.10372 12.4614 5.72864 12.0833C5.35357 11.7052 5.14286 11.1924 5.14286 10.6576L5.14286 9.21748C5.14286 8.89934 5.39869 8.64143 5.71428 8.64143C6.02988 8.64143 6.28571 8.89934 6.28571 9.21748L6.28571 10.6576C6.28571 10.8868 6.37602 11.1066 6.53676 11.2686C6.69751 11.4307 6.91553 11.5217 7.14286 11.5217L14 11.5217C14.2273 11.5217 14.4453 11.4307 14.6061 11.2686C14.7668 11.1066 14.8571 10.8868 14.8571 10.6576L14.8571 2.01676C14.8571 1.78759 14.7668 1.56781 14.6061 1.40576C14.4453 1.24371 14.2273 1.15268 14 1.15268L7.14286 1.15268C6.91553 1.15268 6.69751 1.24371 6.53676 1.40576C6.37602 1.56781 6.28571 1.78759 6.28571 2.01676L6.28571 3.45691C6.28571 3.77505 6.02988 4.03296 5.71428 4.03296C5.39869 4.03296 5.14286 3.77505 5.14286 3.45691L5.14286 2.01676C5.14286 1.48203 5.35357 0.969204 5.72864 0.591093C6.10371 0.212982 6.61242 0.000561581 7.14286 0.000561535L14 0.000560935C14.5304 0.000560889 15.0391 0.212981 15.4142 0.591092C15.7893 0.969203 16 1.48203 16 2.01676L16 10.6576C16 11.1924 15.7893 11.7052 15.4142 12.0833ZM3.83263 9.62482C3.60947 9.84978 3.24767 9.84978 3.02451 9.62482L0.167366 6.74453C-0.0557905 6.51957 -0.0557905 6.15483 0.167365 5.92986L3.02451 3.04957C3.24767 2.82461 3.60947 2.82461 3.83263 3.04957C4.05579 3.27454 4.05579 3.63928 3.83263 3.86424L1.95098 5.76114L10.3214 5.76114C10.637 5.76114 10.8929 6.01905 10.8929 6.33719C10.8929 6.65534 10.637 6.91325 10.3214 6.91325L1.95098 6.91325L3.83263 8.81015C4.05579 9.03511 4.05579 9.39985 3.83263 9.62482Z"/>
</symbol><symbol id="master-card-icon" viewBox="0 0 30 21">
  <path opacity="0.7" d="M3.12835 0C1.41297 0 0 1.41297 0 3.12835V17.7273C0 19.4427 1.41297 20.8557 3.12835 20.8557H26.0696C27.785 20.8557 29.198 19.4427 29.198 17.7273V3.12835C29.198 1.41297 27.785 0 26.0696 0H3.12835ZM3.12835 2.08557H26.0696C26.6588 2.08557 27.1124 2.53918 27.1124 3.12835V17.7273C27.1124 18.3165 26.6588 18.7701 26.0696 18.7701H3.12835C2.53918 18.7701 2.08557 18.3165 2.08557 17.7273V3.12835C2.08557 2.53918 2.53918 2.08557 3.12835 2.08557ZM10.4278 3.12835C6.40895 3.12835 3.12835 6.40895 3.12835 10.4278C3.12835 14.4467 6.40895 17.7273 10.4278 17.7273C11.9193 17.7329 13.3761 17.2777 14.599 16.4238C15.822 17.2775 17.2787 17.7327 18.7701 17.7273C22.789 17.7273 26.0696 14.4467 26.0696 10.4278C26.0696 6.40895 22.789 3.12835 18.7701 3.12835C17.2185 3.12835 15.7773 3.60595 14.599 4.43183C13.3761 3.57802 11.9193 3.12278 10.4278 3.12835ZM10.4278 5.21392C11.7647 5.21392 12.9618 5.73114 13.8826 6.54868C13.4489 7.08672 13.1071 7.69275 12.8711 8.34227H15.1861C15.3321 8.67388 15.4697 9.02008 15.5437 9.38506H12.6114C12.5491 9.72922 12.5163 10.0781 12.5134 10.4278C12.5134 10.7845 12.5551 11.1307 12.6114 11.4706H15.5437C15.4707 11.8356 15.331 12.1818 15.1861 12.5134H12.8711C13.1057 13.1704 13.455 13.77 13.8826 14.307C12.9618 15.1235 11.7657 15.6418 10.4278 15.6418C7.5362 15.6418 5.21392 13.3195 5.21392 10.4278C5.21392 7.5362 7.5362 5.21392 10.4278 5.21392ZM18.7701 5.21392C21.6628 5.21392 23.984 7.53516 23.984 10.4278C23.984 13.3205 21.6628 15.6418 18.7701 15.6418C17.8529 15.638 16.9532 15.3904 16.1632 14.9243C17.1778 13.6454 17.7291 12.0604 17.7273 10.4278C17.7273 8.7281 17.1434 7.17435 16.1632 5.93031C16.9533 5.4646 17.853 5.21736 18.7701 5.21392Z" fill="white"/>
</symbol><symbol id="mobile-icon" viewBox="0 0 11 18">
  <g opacity="0.8">
    <path d="M9.77778 0H1.22222C0.898069 0 0.587192 0.128769 0.357981 0.357981C0.12877 0.587192 0 0.898069 0 1.22222V15.8889C0 16.213 0.12877 16.5239 0.357981 16.7531C0.587192 16.9823 0.898069 17.1111 1.22222 17.1111H9.77778C10.1019 17.1111 10.4128 16.9823 10.642 16.7531C10.8712 16.5239 11 16.213 11 15.8889V1.22222C11 0.898069 10.8712 0.587192 10.642 0.357981C10.4128 0.128769 10.1019 0 9.77778 0ZM1.22222 1.22222H9.77778V12.2222H1.22222V1.22222ZM1.22222 15.8889V13.4444H9.77778V15.8889H1.22222Z"/>
    <path d="M4.88889 14.0557H6.11111V15.2779H4.88889V14.0557Z"/>
  </g>
</symbol><symbol id="note-icon" viewBox="0 0 75 80">
  <path d="M3.5591 0H41.8592C42.0717 0 42.2709 0.0531209 42.448 0.150509C42.6118 0.23019 42.7534 0.345286 42.8641 0.495795L56.2683 13.9C56.5073 14.139 56.6268 14.4533 56.6268 14.7632V28.5569L54.1833 31.0004V16.4143H44.1966C42.2355 16.4143 40.6375 14.8163 40.6375 12.8552V2.44356H3.5591C2.94821 2.44356 2.44356 2.94821 2.44356 3.5591V76.4409C2.44356 77.0518 2.94821 77.5564 3.5591 77.5564H53.0677C53.6786 77.5564 54.1833 77.0518 54.1833 76.4409V57.7512L56.6268 55.3077V76.4409C56.6268 78.402 55.0288 80 53.0677 80H3.5591C1.59805 80 0 78.402 0 76.4409V3.5591C0 1.59805 1.59805 0 3.5591 0ZM43.081 4.16999V12.8552C43.081 13.4661 43.5857 13.9708 44.1966 13.9708H52.8818L43.081 4.16999Z" fill="white"/>
  <path d="M69.0482 25.3827L73.1783 29.5128C74.4842 30.8187 74.4842 32.9391 73.1783 34.245L44.6126 62.8152C44.4444 62.9834 44.2363 63.094 44.015 63.1427L34.0415 66.0334C33.1031 66.3079 32.2575 65.4225 32.532 64.5106L35.4404 54.4752C35.4979 54.2716 35.6086 54.0945 35.7502 53.9528L64.316 25.3871C65.6174 24.0768 67.7423 24.0768 69.0482 25.3827ZM64.1655 28.9905L69.5749 34.3999L71.4519 32.523C71.8016 32.1733 71.8016 31.5978 71.4519 31.2481L67.3217 27.118C66.972 26.7682 66.3965 26.7682 66.0468 27.118L64.1655 28.9905ZM67.8441 36.1264L62.4346 30.7169L38.3399 54.8116L43.7494 60.2211L67.8441 36.1264ZM41.4253 61.3543L37.2111 57.1401L35.4935 63.0763L41.4253 61.3543Z" fill="white"/>
  <path d="M12.9083 33.0412C12.2354 33.0412 11.6865 32.4923 11.6865 31.8194C11.6865 31.1466 12.2354 30.5977 12.9083 30.5977H32.2443C32.9172 30.5977 33.4661 31.1466 33.4661 31.8194C33.4661 32.4923 32.9172 33.0412 32.2443 33.0412H12.9083Z" fill="white"/>
  <path d="M12.9083 40.903C12.2354 40.903 11.6865 40.3541 11.6865 39.6813C11.6865 39.0084 12.2354 38.4595 12.9083 38.4595H43.7184C44.3913 38.4595 44.9402 39.0084 44.9402 39.6813C44.9402 40.3541 44.3913 40.903 43.7184 40.903H12.9083Z" fill="white"/>
  <path d="M12.9083 48.7648C12.2354 48.7648 11.6865 48.2159 11.6865 47.5431C11.6865 46.8702 12.2354 46.3213 12.9083 46.3213H36.4276C37.1004 46.3213 37.6493 46.8702 37.6493 47.5431C37.6493 48.2159 37.1004 48.7648 36.4276 48.7648H12.9083Z" fill="white"/>
  <path d="M12.9083 56.6267C12.2354 56.6267 11.6865 56.0777 11.6865 55.4049C11.6865 54.732 12.2354 54.1831 12.9083 54.1831H31.235C31.9079 54.1831 32.4568 54.732 32.4568 55.4049C32.4568 56.0777 31.9079 56.6267 31.235 56.6267H12.9083Z" fill="white"/>
  <path d="M12.9083 64.4885C12.2354 64.4885 11.6865 63.9396 11.6865 63.2667C11.6865 62.5938 12.2354 62.0449 12.9083 62.0449H28.2514C28.9242 62.0449 29.4732 62.5938 29.4732 63.2667C29.4732 63.9396 28.9242 64.4885 28.2514 64.4885H12.9083Z" fill="white"/>
</symbol><symbol id="payment-card-icon" viewBox="0 0 16 12">
    <path fill-rule="evenodd" clip-rule="evenodd" d="M2.57143 1.09091C1.78245 1.09091 1.14286 1.70143 1.14286 2.45455V9.54545C1.14286 10.2986 1.78245 10.9091 2.57143 10.9091H13.4286C14.2176 10.9091 14.8571 10.2986 14.8571 9.54545V2.45455C14.8571 1.70143 14.2176 1.09091 13.4286 1.09091H2.57143ZM0 2.45455C0 1.09894 1.15127 0 2.57143 0H13.4286C14.8487 0 16 1.09894 16 2.45455V9.54545C16 10.9011 14.8487 12 13.4286 12H2.57143C1.15127 12 0 10.9011 0 9.54545V2.45455Z"/>
    <path fill-rule="evenodd" clip-rule="evenodd" d="M2.66016 7.40422C2.66016 6.87544 3.14417 6.44678 3.74124 6.44678H5.33791C5.93498 6.44678 6.41899 6.87544 6.41899 7.40422V8.04252C6.41899 8.5713 5.93498 8.99997 5.33791 8.99997H3.74124C3.14417 8.99997 2.66016 8.5713 2.66016 8.04252V7.40422Z"/>
    <rect x="1" y="3" width="14" height="1.5"/>
</symbol><symbol id="play-icon" viewBox="0 0 202 206">
    <g filter="url(#filter0_d_736_36502)">
        <path d="M76.4546 128C75.8036 128 75.1793 127.745 74.7189 127.292C74.2586 126.839 74 126.224 74 125.583V72.4163C74.0001 71.9963 74.1113 71.5836 74.3227 71.2189C74.5341 70.8542 74.8384 70.55 75.2056 70.3363C75.5728 70.1226 75.9902 70.0068 76.4166 70.0003C76.8431 69.9938 77.264 70.0968 77.6377 70.2993L126.729 96.8828C127.114 97.0914 127.435 97.3979 127.659 97.7703C127.882 98.1426 128 98.5673 128 98.9998C128 99.4323 127.882 99.857 127.659 100.229C127.435 100.602 127.114 100.908 126.729 101.117L77.6377 127.7C77.2753 127.897 76.8683 128 76.4546 128Z"/>
    </g>
    
</symbol><symbol id="refresh-icon" viewBox="0 0 14 16">
    <path d="M12.3846 0C12.0872 0 11.8461 0.241076 11.8461 0.53847V2.50545C9.0739 -0.178449 4.65088 -0.10683 1.96699 2.66534C0.702135 3.97181 -0.00348912 5.71999 1.29738e-05 7.53842C1.29738e-05 7.83582 0.241089 8.07689 0.538483 8.07689C0.835877 8.07689 1.07692 7.83582 1.07692 7.53842C1.07758 4.26722 3.72993 1.61588 7.00117 1.61655C8.66251 1.61686 10.2473 2.31491 11.3691 3.54036L8.9837 4.33565C8.7012 4.42964 8.54833 4.73483 8.64232 5.01733C8.73631 5.29983 9.0415 5.45269 9.324 5.3587L12.5548 4.2818C12.7753 4.20835 12.9238 4.00163 12.9231 3.7692V0.538439C12.923 0.241076 12.682 0 12.3846 0Z" fill="white"/>
    <path d="M13.4608 6.99976C13.1634 6.99976 12.9223 7.24083 12.9223 7.53822C12.9217 10.8094 10.2693 13.4608 6.99808 13.4601C5.33673 13.4598 3.75193 12.7617 2.63019 11.5363L5.01555 10.741C5.29805 10.647 5.45091 10.3418 5.35693 10.0593C5.26294 9.77681 4.95775 9.62395 4.67525 9.71794L1.44449 10.7948C1.22396 10.8683 1.07545 11.075 1.07617 11.3074V14.5382C1.07617 14.8356 1.31725 15.0767 1.61464 15.0767C1.91204 15.0767 2.15311 14.8356 2.15311 14.5382V12.5712C4.92532 15.2551 9.34836 15.1835 12.0322 12.4113C13.2971 11.1048 14.0027 9.35666 13.9992 7.53822C13.9993 7.24083 13.7582 6.99976 13.4608 6.99976Z" fill="white"/>
</symbol><symbol id="reload-icon" viewBox="0 0 14 16">
  <path d="M12.3846 0C12.0872 0 11.8461 0.241076 11.8461 0.53847V2.50545C9.0739 -0.178449 4.65088 -0.10683 1.96699 2.66534C0.702135 3.97181 -0.00348912 5.71999 1.29738e-05 7.53842C1.29738e-05 7.83582 0.241089 8.07689 0.538483 8.07689C0.835877 8.07689 1.07692 7.83582 1.07692 7.53842C1.07758 4.26722 3.72993 1.61588 7.00117 1.61655C8.66251 1.61686 10.2473 2.31491 11.3691 3.54036L8.9837 4.33565C8.7012 4.42964 8.54833 4.73483 8.64232 5.01733C8.73631 5.29983 9.0415 5.45269 9.324 5.3587L12.5548 4.2818C12.7753 4.20835 12.9238 4.00163 12.9231 3.7692V0.538439C12.923 0.241076 12.682 0 12.3846 0Z" fill="white"/>
  <path d="M13.4616 6.99976C13.1642 6.99976 12.9231 7.24083 12.9231 7.53822C12.9225 10.8094 10.2701 13.4608 6.99887 13.4601C5.33753 13.4598 3.75272 12.7617 2.63098 11.5363L5.01634 10.741C5.29885 10.647 5.45171 10.3418 5.35772 10.0593C5.26373 9.77681 4.95854 9.62395 4.67604 9.71794L1.44529 10.7948C1.22475 10.8683 1.07624 11.075 1.07697 11.3074V14.5382C1.07697 14.8356 1.31804 15.0767 1.61544 15.0767C1.91283 15.0767 2.15391 14.8356 2.15391 14.5382V12.5712C4.92611 15.2551 9.34915 15.1835 12.033 12.4113C13.2979 11.1048 14.0035 9.35666 14 7.53822C14.0001 7.24083 13.759 6.99976 13.4616 6.99976Z" fill="white"/>
</symbol><symbol id="right-arrow-icon" viewBox="0 0 13 8">
  <path fill-rule="evenodd" clip-rule="evenodd" d="M8.14689 0.146894C8.19334 0.10033 8.24852 0.0633873 8.30926 0.0381808C8.37001 0.0129744 8.43513 0 8.50089 0C8.56666 0 8.63178 0.0129744 8.69253 0.0381808C8.75327 0.0633873 8.80845 0.10033 8.85489 0.146894L11.8549 3.14689C11.9015 3.19334 11.9384 3.24851 11.9636 3.30926C11.9888 3.37001 12.0018 3.43513 12.0018 3.50089C12.0018 3.56666 11.9888 3.63178 11.9636 3.69253C11.9384 3.75327 11.9015 3.80845 11.8549 3.85489L8.85489 6.85489C8.76101 6.94878 8.63367 7.00152 8.50089 7.00152C8.36812 7.00152 8.24078 6.94878 8.14689 6.85489C8.05301 6.76101 8.00026 6.63367 8.00026 6.50089C8.00026 6.36812 8.05301 6.24078 8.14689 6.14689L10.7939 3.50089L8.14689 0.854894C8.10033 0.808448 8.06339 0.753272 8.03818 0.692527C8.01297 0.631782 8 0.566661 8 0.500894C8 0.435126 8.01297 0.370005 8.03818 0.30926C8.06339 0.248515 8.10033 0.193339 8.14689 0.146894Z"/>
  <path fill-rule="evenodd" clip-rule="evenodd" d="M0 3.50098C0 3.36837 0.0526785 3.24119 0.146447 3.14742C0.240215 3.05366 0.367392 3.00098 0.5 3.00098H11C11.1326 3.00098 11.2598 3.05366 11.3536 3.14742C11.4473 3.24119 11.5 3.36837 11.5 3.50098C11.5 3.63358 11.4473 3.76076 11.3536 3.85453C11.2598 3.9483 11.1326 4.00098 11 4.00098H0.5C0.367392 4.00098 0.240215 3.9483 0.146447 3.85453C0.0526785 3.76076 0 3.63358 0 3.50098Z"/>
</symbol><symbol id="right-arrow" viewBox="0 0 13 8">
    <path fill-rule="evenodd" clip-rule="evenodd" d="M8.30926 0.0381808C8.24852 0.0633873 8.19334 0.10033 8.14689 0.146894C8.10033 0.193339 8.06339 0.248515 8.03818 0.30926C8.01297 0.370005 8 0.435126 8 0.500894C8 0.566661 8.01297 0.631782 8.03818 0.692527C8.06339 0.753272 8.10033 0.808448 8.14689 0.854894L10.2938 3.00098H0.5C0.367392 3.00098 0.240215 3.05366 0.146447 3.14742C0.0526785 3.24119 0 3.36837 0 3.50098C0 3.63358 0.0526785 3.76076 0.146447 3.85453C0.240215 3.9483 0.367392 4.00098 0.5 4.00098H10.2936L8.14689 6.14689C8.05301 6.24078 8.00026 6.36812 8.00026 6.50089C8.00026 6.63367 8.05301 6.76101 8.14689 6.85489C8.24078 6.94878 8.36812 7.00152 8.50089 7.00152C8.63367 7.00152 8.76101 6.94878 8.85489 6.85489L11.8549 3.85489C11.9015 3.80845 11.9384 3.75327 11.9636 3.69253C11.9888 3.63178 12.0018 3.56666 12.0018 3.50089C12.0018 3.43513 11.9888 3.37001 11.9636 3.30926C11.9384 3.24851 11.9015 3.19334 11.8549 3.14689L8.85489 0.146894C8.80845 0.10033 8.75327 0.0633873 8.69253 0.0381808C8.63178 0.0129744 8.56666 0 8.50089 0C8.43513 0 8.37001 0.0129744 8.30926 0.0381808Z" fill="black"/>
</symbol><symbol id="storage-icon" viewBox="0 0 16 16">
    <path d="M4.66667 4C4.48986 4 4.32029 4.07024 4.19526 4.19526C4.07024 4.32029 4 4.48986 4 4.66667V7.33333C4 7.51014 4.07024 7.67971 4.19526 7.80474C4.32029 7.92976 4.48986 8 4.66667 8H11.3333C11.5101 8 11.6797 7.92976 11.8047 7.80474C11.9298 7.67971 12 7.51014 12 7.33333V4.66667C12 4.48986 11.9298 4.32029 11.8047 4.19526C11.6797 4.07024 11.5101 4 11.3333 4H4.66667ZM5.33333 6.66667V5.33333H10.6667V6.66667H5.33333ZM3.33333 0C2.44928 0 1.60143 0.351189 0.976311 0.976311C0.351189 1.60143 0 2.44928 0 3.33333V12.6667C0 13.5507 0.351189 14.3986 0.976311 15.0237C1.60143 15.6488 2.44928 16 3.33333 16H12.6667C13.5507 16 14.3986 15.6488 15.0237 15.0237C15.6488 14.3986 16 13.5507 16 12.6667V3.33333C16 2.44928 15.6488 1.60143 15.0237 0.976311C14.3986 0.351189 13.5507 0 12.6667 0H3.33333ZM1.33333 3.33333C1.33333 2.8029 1.54405 2.29419 1.91912 1.91912C2.29419 1.54405 2.8029 1.33333 3.33333 1.33333H12.6667C13.1971 1.33333 13.7058 1.54405 14.0809 1.91912C14.456 2.29419 14.6667 2.8029 14.6667 3.33333V12.6667C14.6667 13.1971 14.456 13.7058 14.0809 14.0809C13.7058 14.456 13.1971 14.6667 12.6667 14.6667H3.33333C2.8029 14.6667 2.29419 14.456 1.91912 14.0809C1.54405 13.7058 1.33333 13.1971 1.33333 12.6667V3.33333Z"/>
</symbol><symbol id="telegram-icon" viewBox="0 0 448 512">
    <path d="M446.7 98.6l-67.6 318.8c-5.1 22.5-18.4 28.1-37.3 17.5l-103-75.9-49.7 47.8c-5.5 5.5-10.1 10.1-20.7 10.1l7.4-104.9 190.9-172.5c8.3-7.4-1.8-11.5-12.9-4.1L117.8 284 16.2 252.2c-22.1-6.9-22.5-22.1 4.6-32.7L418.2 66.4c18.4-6.9 34.5 4.1 28.5 32.2z"/>
</symbol><symbol id="user-icon" viewBox="0 0 12 15">
  <path fill-rule="evenodd" clip-rule="evenodd" d="M9.66667 3.66667C9.66667 5.66667 8 7.33333 6 7.33333C4 7.33333 2.33333 5.66667 2.33333 3.66667C2.33333 1.66667 4 0 6 0C8 0 9.66667 1.66667 9.66667 3.66667ZM7.66667 3.66667C7.66667 2.73333 6.93333 2 6 2C5.06667 2 4.33333 2.73333 4.33333 3.66667C4.33333 4.6 5.06667 5.33333 6 5.33333C6.93333 5.33333 7.66667 4.6 7.66667 3.66667ZM0 12.6667C0 10.4667 1.8 8.66667 4 8.66667H8C10.2 8.66667 12 10.4667 12 12.6667V14.6667H10V12.6667C10 11.5333 9.06667 10.6667 8 10.6667H4C2.93333 10.6667 2 11.5333 2 12.6667V14.6667H0V12.6667Z"/>
</symbol><symbol id="vertical-from-to-line-icon" viewBox="0 0 8 54">
    <circle cx="4" cy="4" r="3.5" stroke="black" fill="none"/>
    <rect x="1.5" y="47" width="6" height="6" stroke="black" fill="none"/>
    <line x1="4.5" y1="11" x2="4.5" y2="41" stroke="black"/>
</symbol><symbol id="visa-icon" viewBox="0 0 31 21">
  <path opacity="0.7" d="M4.12445 0C2.40907 0 0.996094 1.41297 0.996094 3.12835V17.7273C0.996094 19.4427 2.40907 20.8557 4.12445 20.8557H27.0657C28.7811 20.8557 30.194 19.4427 30.194 17.7273V3.12835C30.194 1.41297 28.7811 0 27.0657 0H4.12445ZM4.12445 2.08557H27.0657C27.6549 2.08557 28.1085 2.53918 28.1085 3.12835V17.7273C28.1085 18.3165 27.6549 18.7701 27.0657 18.7701H4.12445C3.53527 18.7701 3.08166 18.3165 3.08166 17.7273V3.12835C3.08166 2.53918 3.53527 2.08557 4.12445 2.08557ZM19.1468 6.64775C17.1384 6.64775 16.0841 7.63839 16.0841 8.89599C16.0841 11.1724 18.7537 10.8564 18.7537 12.0243C18.7537 12.2256 18.5868 12.6782 17.4815 12.6782C16.3761 12.6782 15.6566 12.2871 15.6566 12.2871L15.3333 13.7887C15.3333 13.7887 16.0164 14.2111 17.3876 14.2111C18.7537 14.2111 20.6766 13.1599 20.6766 11.6354C20.6766 9.80426 18.0039 9.68329 18.0039 8.86679C18.0039 8.44968 18.3584 8.11599 19.3074 8.11599C19.9268 8.11599 20.6109 8.6061 20.6109 8.6061L20.9383 7.01064C20.9383 7.01064 20.0311 6.65088 19.1447 6.65088L19.1468 6.64775ZM10.5772 6.7781L8.81697 11.9274C8.81697 11.9274 8.72938 11.4811 8.68663 11.2099C7.69077 8.97837 6.07967 8.14623 6.07967 8.14623L7.61256 13.9796H9.69813L12.6284 6.7781H10.5793H10.5772ZM13.3792 6.7781L12.2383 13.9796H14.1633L15.3031 6.7781H13.3792ZM23.7423 6.7781L20.614 13.9796H22.5035L22.8946 12.9701H25.3065L25.5015 13.9796H27.2284L25.7622 6.7781H23.7413H23.7423ZM3.96073 6.80938C3.96073 6.80938 7.71162 7.96166 8.5886 10.7866L7.93895 7.52786C7.93895 7.52786 7.65218 6.80834 6.89617 6.80834H3.96177L3.96073 6.80938ZM24.4587 8.86366L25.0114 11.5686H23.4472L24.4587 8.86366Z" fill="white"/>
</symbol><symbol id="whatsapp-icon" viewBox="0 0 56.693 56.693">
    <style type="text/css">
        .st0 {
            fill-rule: evenodd;
            clip-rule: evenodd;
        }
    </style>
    <g>
        <path class="st0" d="M46.3802,10.7138c-4.6512-4.6565-10.8365-7.222-17.4266-7.2247c-13.5785,0-24.63,11.0506-24.6353,24.6333   c-0.0019,4.342,1.1325,8.58,3.2884,12.3159l-3.495,12.7657l13.0595-3.4257c3.5982,1.9626,7.6495,2.9971,11.7726,2.9985h0.01   c0.0008,0-0.0006,0,0.0002,0c13.5771,0,24.6293-11.0517,24.635-24.6347C53.5914,21.5595,51.0313,15.3701,46.3802,10.7138z    M28.9537,48.6163h-0.0083c-3.674-0.0014-7.2777-0.9886-10.4215-2.8541l-0.7476-0.4437l-7.7497,2.0328l2.0686-7.5558   l-0.4869-0.7748c-2.0496-3.26-3.1321-7.028-3.1305-10.8969c0.0044-11.2894,9.19-20.474,20.4842-20.474   c5.469,0.0017,10.6101,2.1344,14.476,6.0047c3.8658,3.8703,5.9936,9.0148,5.9914,14.4859   C49.4248,39.4307,40.2395,48.6163,28.9537,48.6163z"/>
        <path class="st0" d="M40.1851,33.281c-0.6155-0.3081-3.6419-1.797-4.2061-2.0026c-0.5642-0.2054-0.9746-0.3081-1.3849,0.3081   c-0.4103,0.6161-1.59,2.0027-1.9491,2.4136c-0.359,0.4106-0.7182,0.4623-1.3336,0.1539c-0.6155-0.3081-2.5989-0.958-4.95-3.0551   c-1.83-1.6323-3.0653-3.6479-3.4245-4.2643c-0.359-0.6161-0.0382-0.9492,0.27-1.2562c0.2769-0.2759,0.6156-0.7189,0.9234-1.0784   c0.3077-0.3593,0.4103-0.6163,0.6155-1.0268c0.2052-0.4109,0.1027-0.7704-0.0513-1.0784   c-0.1539-0.3081-1.3849-3.3379-1.8978-4.5706c-0.4998-1.2001-1.0072-1.0375-1.3851-1.0566   c-0.3585-0.0179-0.7694-0.0216-1.1797-0.0216s-1.0773,0.1541-1.6414,0.7702c-0.5642,0.6163-2.1545,2.1056-2.1545,5.1351   c0,3.0299,2.2057,5.9569,2.5135,6.3676c0.3077,0.411,4.3405,6.6282,10.5153,9.2945c1.4686,0.6343,2.6152,1.013,3.5091,1.2966   c1.4746,0.4686,2.8165,0.4024,3.8771,0.2439c1.1827-0.1767,3.6419-1.489,4.1548-2.9267c0.513-1.438,0.513-2.6706,0.359-2.9272   C41.211,33.7433,40.8006,33.5892,40.1851,33.281z"/>
    </g>
</symbol></svg>